<?xml version="1.0" encoding="UTF-8" standalone="no"?>
<!DOCTYPE svg PUBLIC "-//W3C//DTD SVG 1.1//EN" "http://www.w3.org/Graphics/SVG/1.1/DTD/svg11.dtd">
<svg width="100%" height="100%" viewBox="0 0 17 17" version="1.1" xmlns="http://www.w3.org/2000/svg" xmlns:xlink="http://www.w3.org/1999/xlink" xml:space="preserve" xmlns:serif="http://www.serif.com/" style="fill-rule:evenodd;clip-rule:evenodd;stroke-linejoin:round;stroke-miterlimit:2;">
    <path d="M17,4.25L17,12.75C17,15.096 15.096,17 12.75,17L4.25,17C1.904,17 0,15.096 0,12.75L0,4.25C0,1.904 1.904,0 4.25,0L12.75,0C15.096,0 17,1.904 17,4.25Z" style="fill:rgb(252,178,25);"/>
    <path d="M2.512,7.229L8.498,7.229C8.498,11.02 7.147,14.14 5.505,14.14C3.863,14.14 2.512,11.02 2.512,7.229Z" style="fill:white;fill-rule:nonzero;"/>
    <path d="M8.898,6.829L8.898,7.229C8.898,9.587 8.384,11.693 7.613,13.002C7.029,13.994 6.279,14.54 5.505,14.54C4.731,14.54 3.981,13.994 3.397,13.002C2.626,11.693 2.112,9.587 2.112,7.229L2.112,6.829L8.898,6.829ZM2.917,7.629C2.969,9.657 3.414,11.455 4.086,12.596C4.494,13.289 4.965,13.74 5.505,13.74C6.045,13.74 6.516,13.289 6.924,12.596C7.596,11.455 8.041,9.657 8.093,7.629L2.917,7.629Z" style="fill:rgb(24,24,26);"/>
    <path d="M8.499,7.229L14.486,7.229C14.486,11.02 13.135,14.14 11.492,14.14C9.85,14.14 8.499,11.02 8.499,7.229Z" style="fill:white;fill-rule:nonzero;"/>
    <path d="M14.886,6.829L14.886,7.229C14.886,9.587 14.371,11.693 13.6,13.002C13.016,13.994 12.266,14.54 11.492,14.54C10.719,14.54 9.969,13.994 9.384,13.002C8.613,11.693 8.099,9.587 8.099,7.229L8.099,6.829L14.886,6.829ZM8.904,7.629C8.956,9.657 9.401,11.455 10.074,12.596C10.482,13.289 10.952,13.74 11.492,13.74C12.033,13.74 12.503,13.289 12.911,12.596C13.583,11.455 14.029,9.657 14.081,7.629L8.904,7.629Z" style="fill:rgb(24,24,26);"/>
    <path d="M7.03,9.927C7.841,9.927 8.499,9.269 8.499,8.458C8.499,7.646 7.841,6.989 7.03,6.989C6.219,6.989 5.561,7.646 5.561,8.458C5.561,9.269 6.219,9.927 7.03,9.927Z" style="fill:rgb(24,24,26);fill-rule:nonzero;"/>
    <path d="M12.961,10.02C13.772,10.02 14.43,9.362 14.43,8.551C14.43,7.739 13.772,7.082 12.961,7.082C12.15,7.082 11.492,7.739 11.492,8.551C11.492,9.362 12.15,10.02 12.961,10.02Z" style="fill:rgb(24,24,26);fill-rule:nonzero;"/>
    <path d="M2.509,3.253C2.292,3.214 2.148,3.006 2.187,2.789C2.226,2.571 2.434,2.427 2.652,2.466L14.559,4.617L14.488,5.411L2.58,5.411C2.36,5.411 2.18,5.232 2.18,5.011C2.18,4.79 2.36,4.611 2.58,4.611L10.024,4.611L2.509,3.253Z" style="fill:rgb(24,24,26);"/>
</svg>
