<svg width="16" height="16" viewBox="0 0 16 16" fill="none" xmlns="http://www.w3.org/2000/svg">
<rect width="16" height="16" rx="8" fill="#FF964A"/>
<path d="M9.34789 11.196H6.72965C6.02118 11.196 5.89797 10.4422 6.02118 10.1407C6.08279 9.98995 6.2368 9.77889 6.36001 9.62814C6.85286 9.8995 7.43811 10.0503 8.05417 10.0503C10.0255 10.0503 11.5965 8.48241 11.5965 6.58291C11.5965 5.55779 11.1344 4.65327 10.426 3.98995L10.5184 3.8995C10.7032 3.71859 10.9804 3.59799 11.2577 3.62814L11.6889 3.65829V2H10.9496C10.0872 2 9.37869 2.51256 9.07066 3.23618C8.76263 3.14573 8.4238 3.08543 8.08497 3.08543C6.11359 3.08543 4.54265 4.65327 4.54265 6.55276C4.54265 7.30653 4.78907 8.03015 5.22031 8.60301C5.1587 8.66332 5.0663 8.72362 5.00469 8.75377C4.97389 8.78392 4.94308 8.81407 4.91228 8.84422C4.20382 9.50754 3.86499 10.3518 4.0498 11.3166C4.14221 11.8291 4.60425 12.3719 5.0663 12.6734C5.37432 12.8844 5.77476 12.9749 6.1752 12.9749L9.13227 12.8543C9.4711 12.8543 9.77912 13.005 9.96394 13.3065L10.3336 14L12.1509 13.397L11.8429 12.7337C11.3809 11.799 10.426 11.196 9.34789 11.196ZM8.08497 4.92462C9.00905 4.92462 9.77912 5.67839 9.77912 6.58291C9.77912 7.48744 9.00905 8.24121 8.08497 8.24121C7.16089 8.24121 6.39082 7.48744 6.39082 6.58291C6.39082 5.64824 7.13008 4.92462 8.08497 4.92462Z" fill="#18181A"/>
</svg>
