<svg width="32" height="32" viewBox="0 0 32 32" fill="none" xmlns="http://www.w3.org/2000/svg">
<rect width="32" height="32" rx="16" fill="#FF964A"/>
<path d="M18.5871 22.9246H12.9142C11.3792 22.9246 11.1123 21.2915 11.3792 20.6382C11.5127 20.3116 11.8464 19.8543 12.1134 19.5276C13.1812 20.1156 14.4492 20.4422 15.784 20.4422C20.0554 20.4422 23.4591 17.0452 23.4591 12.9296C23.4591 10.7085 22.458 8.74874 20.923 7.31156L21.1232 7.11558C21.5236 6.72362 22.1243 6.46231 22.7249 6.52764L23.6593 6.59297V3H22.0575C20.1888 3 18.6538 4.11055 17.9864 5.67839C17.319 5.48241 16.5849 5.35176 15.8508 5.35176C11.5794 5.35176 8.17574 8.74874 8.17574 12.8643C8.17574 14.4975 8.70965 16.0653 9.644 17.3065C9.51053 17.4372 9.31031 17.5678 9.17683 17.6332C9.11009 17.6985 9.04335 17.7638 8.97661 17.8291C7.4416 19.2663 6.70747 21.0955 7.10791 23.1859C7.30813 24.2965 8.30922 25.4724 9.31031 26.1256C9.9777 26.5829 10.8453 26.7789 11.7129 26.7789L18.1199 26.5176C18.854 26.5176 19.5214 26.8442 19.9219 27.4975L20.7227 29L24.6604 27.6935L23.993 26.2563C22.9919 24.2312 20.923 22.9246 18.5871 22.9246ZM15.8508 9.33668C17.853 9.33668 19.5214 10.9699 19.5214 12.9296C19.5214 14.8894 17.853 16.5226 15.8508 16.5226C13.8486 16.5226 12.1801 14.8894 12.1801 12.9296C12.1801 10.9045 13.7818 9.33668 15.8508 9.33668Z" fill="#18181A"/>
</svg>
