<svg xmlns="http://www.w3.org/2000/svg" width="80" height="42" viewBox="0 0 80 42">
    <path d="M62.0511 33.537H54.3742C52.297 33.537 51.9357 31.3012 52.297 30.4069C52.4776 29.9598 52.9292 29.3338 53.2904 28.8866C54.7355 29.6915 56.4515 30.1386 58.2578 30.1386C64.038 30.1386 68.6442 25.4882 68.6442 19.854C68.6442 16.8134 67.2894 14.1304 65.2121 12.163L65.4831 11.8947C66.025 11.3581 66.8378 11.0004 67.6507 11.0898L68.9151 11.1792V6.2605H66.7475C64.2187 6.2605 62.1414 7.78083 61.2382 9.92718C60.3351 9.65888 59.3416 9.48002 58.3481 9.48002C52.5679 9.48002 47.9618 14.1304 47.9618 19.7646C47.9618 22.0004 48.6843 24.1467 49.9488 25.8459C49.7681 26.0248 49.4972 26.2037 49.3165 26.2931C49.2262 26.3825 49.1359 26.472 49.0456 26.5614C46.9683 28.5289 45.9749 31.0329 46.5168 33.8947C46.7877 35.4151 48.1424 37.0248 49.4972 37.9192C50.4003 38.5452 51.5744 38.8135 52.7486 38.8135L61.4189 38.4557C62.4124 38.4557 63.3155 38.9029 63.8574 39.7972L64.9412 41.8541L70.2698 40.0655L69.3667 38.098C68.0119 35.3256 65.2121 33.537 62.0511 33.537ZM58.3481 14.9353C61.0576 14.9353 63.3155 17.1711 63.3155 19.854C63.3155 22.537 61.0576 24.7728 58.3481 24.7728C55.6387 24.7728 53.3808 22.537 53.3808 19.854C53.3808 17.0817 55.5483 14.9353 58.3481 14.9353Z"/>
    <path d="M31.7905 9.39C26.3715 9.6583 21.8557 13.951 21.4944 19.3169C21.0429 25.6665 26.1005 30.9429 32.3323 30.9429C34.4096 30.9429 36.3062 29.7803 37.9319 28.7966V30.6746H43.2606V19.764C42.9896 13.7721 37.9319 9.12171 31.7905 9.39ZM32.3323 25.9348C29.081 25.9348 26.5521 23.3413 26.5521 20.2112C26.5521 16.9917 29.1713 14.4876 32.3323 14.4876C35.5837 14.4876 38.1126 17.0811 38.1126 20.2112C38.2029 23.3413 35.5837 25.9348 32.3323 25.9348Z"/>
    <path d="M21.5855 9.74775H14.0893L7.58653 16.1868L5.32864 18.4226V6.08107H0V30.6746H5.32864V21.4632L7.58653 23.699V23.6096L14.6312 30.6746H22.1274L10.6573 19.9429L21.5855 9.74775Z"/>
    <path d="M73.7876 28.7971V30.5857H79.1162V9.74825H73.7876V28.7971Z"/>
    <path d="M76.4119 6.79676C78.3074 6.79676 79.8439 5.27525 79.8439 3.39837C79.8439 1.52149 78.3074 -1.52588e-05 76.4119 -1.52588e-05C74.5165 -1.52588e-05 72.9799 1.52149 72.9799 3.39837C72.9799 5.27525 74.5165 6.79676 76.4119 6.79676Z"/>
</svg>