<svg width="28" height="28" viewBox="0 0 28 28" fill="none" xmlns="http://www.w3.org/2000/svg">
<g id="PrivacyPassOn (1) 1" clip-path="url(#clip0_4448_367)">
<path id="Vector" fill-rule="evenodd" clip-rule="evenodd" d="M28.0022 7V21C28.0022 24.864 24.8662 28 21.0022 28H7.0022C3.1382 28 0.00219727 24.864 0.00219727 21V7C0.00219727 3.136 3.1382 0 7.0022 0H21.0022C24.8662 0 28.0022 3.136 28.0022 7Z" fill="#FCB219"/>
<path id="Vector_2" d="M4.13916 11.9066H13.9985C13.9985 18.1506 11.7733 23.2894 9.06881 23.2894C6.36434 23.2894 4.13916 18.1506 4.13916 11.9066Z" fill="white"/>
<path id="Vector_3" fill-rule="evenodd" clip-rule="evenodd" d="M14.6583 11.2479V11.9068C14.6583 15.7905 13.8117 19.2592 12.5418 21.4152C11.5799 23.0491 10.3446 23.9484 9.06979 23.9484C7.79497 23.9484 6.55968 23.0491 5.59779 21.4152C4.32791 19.2592 3.48132 15.7905 3.48132 11.9068V11.2479H14.6583ZM4.80721 12.5656C4.89285 15.9058 5.62579 18.8672 6.73262 20.7465C7.40462 21.8879 8.18038 22.6308 9.06979 22.6308C9.95921 22.6308 10.735 21.8879 11.407 20.7465C12.5138 18.8672 13.2467 15.9058 13.3324 12.5656H4.80721Z" fill="#18181A"/>
<path id="Vector_4" d="M14.0005 11.9066H23.8614C23.8614 18.1506 21.6363 23.2894 18.9301 23.2894C16.2257 23.2894 14.0005 18.1506 14.0005 11.9066Z" fill="white"/>
<path id="Vector_5" fill-rule="evenodd" clip-rule="evenodd" d="M24.5197 11.2479V11.9068C24.5197 15.7905 23.6714 19.2592 22.4015 21.4152C21.4397 23.0491 20.2044 23.9484 18.9295 23.9484C17.6564 23.9484 16.4211 23.0491 15.4575 21.4152C14.1877 19.2592 13.3411 15.7905 13.3411 11.9068V11.2479H24.5197ZM14.6669 12.5656C14.7526 15.9058 15.4855 18.8672 16.594 20.7465C17.266 21.8879 18.0401 22.6308 18.9295 22.6308C19.8206 22.6308 20.5947 21.8879 21.2667 20.7465C22.3735 18.8672 23.1081 15.9058 23.1938 12.5656H14.6669Z" fill="#18181A"/>
<path id="Vector_6" d="M11.5802 16.35C12.9159 16.35 13.9997 15.2662 13.9997 13.9304C13.9997 12.593 12.9159 11.5109 11.5802 11.5109C10.2444 11.5109 9.16064 12.593 9.16064 13.9304C9.16064 15.2662 10.2444 16.35 11.5802 16.35Z" fill="#18181A"/>
<path id="Vector_7" d="M21.35 16.5036C22.6857 16.5036 23.7695 15.4198 23.7695 14.084C23.7695 12.7466 22.6857 11.6645 21.35 11.6645C20.0142 11.6645 18.9304 12.7466 18.9304 14.084C18.9304 15.4198 20.0142 16.5036 21.35 16.5036Z" fill="#18181A"/>
<path id="Vector_8" fill-rule="evenodd" clip-rule="evenodd" d="M4.13417 5.35763C3.77676 5.29339 3.53958 4.9508 3.60381 4.59339C3.66805 4.23433 4.01064 3.99716 4.3697 4.06139L23.9812 7.60421L23.8643 8.91198H4.25111C3.88876 8.91198 3.59229 8.61716 3.59229 8.25316C3.59229 7.88916 3.88876 7.59433 4.25111 7.59433H16.5118L4.13417 5.35763Z" fill="#18181A"/>
</g>
<defs>
<clipPath id="clip0_4448_367">
<rect width="28" height="28" fill="white" transform="translate(0.00219727)"/>
</clipPath>
</defs>
</svg>
