<svg xmlns="http://www.w3.org/2000/svg" width="24" height="25" viewBox="0 0 24 25" fill="none">
    <path fill-rule="evenodd" clip-rule="evenodd" d="M12.0555 4.98252C12.5712 4.46679 13.2707 4.17706 14 4.17706C14.7293 4.17706 15.4288 4.46679 15.9445 4.98252C16.2793 5.3173 16.5189 5.72951 16.6458 6.17706H20C20.4142 6.17706 20.75 6.51285 20.75 6.92706C20.75 7.34128 20.4142 7.67706 20 7.67706H16.6458C16.5189 8.12461 16.2793 8.53683 15.9445 8.87161C15.4288 9.38733 14.7293 9.67706 14 9.67706C13.2707 9.67706 12.5712 9.38733 12.0555 8.87161C11.7207 8.53683 11.4811 8.12461 11.3542 7.67706H4C3.58579 7.67706 3.25 7.34128 3.25 6.92706C3.25 6.51285 3.58579 6.17706 4 6.17706H11.3542C11.4811 5.72951 11.7207 5.3173 12.0555 4.98252ZM14 5.67706C13.6685 5.67706 13.3505 5.80876 13.1161 6.04318C12.8817 6.2776 12.75 6.59554 12.75 6.92706C12.75 7.25858 12.8817 7.57653 13.1161 7.81095C13.3505 8.04537 13.6685 8.17706 14 8.17706C14.3315 8.17706 14.6495 8.04537 14.8839 7.81095C15.1183 7.57653 15.25 7.25858 15.25 6.92706C15.25 6.59554 15.1183 6.2776 14.8839 6.04318C14.6495 5.80876 14.3315 5.67706 14 5.67706ZM6.05546 10.9825C6.57118 10.4668 7.27065 10.1771 8 10.1771C8.72935 10.1771 9.42882 10.4668 9.94454 10.9825C10.2793 11.3173 10.5189 11.7295 10.6458 12.1771H20C20.4142 12.1771 20.75 12.5128 20.75 12.9271C20.75 13.3413 20.4142 13.6771 20 13.6771H10.6458C10.5189 14.1246 10.2793 14.5368 9.94454 14.8716C9.42882 15.3873 8.72935 15.6771 8 15.6771C7.27065 15.6771 6.57118 15.3873 6.05546 14.8716C5.72067 14.5368 5.48113 14.1246 5.35424 13.6771H4C3.58579 13.6771 3.25 13.3413 3.25 12.9271C3.25 12.5128 3.58579 12.1771 4 12.1771H5.35424C5.48113 11.7295 5.72067 11.3173 6.05546 10.9825ZM8 11.6771C7.66848 11.6771 7.35054 11.8088 7.11612 12.0432C6.8817 12.2776 6.75 12.5955 6.75 12.9271C6.75 13.2586 6.8817 13.5765 7.11612 13.8109C7.35054 14.0454 7.66848 14.1771 8 14.1771C8.33152 14.1771 8.64946 14.0454 8.88388 13.8109C9.1183 13.5765 9.25 13.2586 9.25 12.9271C9.25 12.5955 9.1183 12.2776 8.88388 12.0432C8.64946 11.8088 8.33152 11.6771 8 11.6771ZM15.0555 16.9825C15.5712 16.4668 16.2707 16.1771 17 16.1771C17.7293 16.1771 18.4288 16.4668 18.9445 16.9825C19.2793 17.3173 19.5189 17.7295 19.6458 18.1771H20C20.4142 18.1771 20.75 18.5128 20.75 18.9271C20.75 19.3413 20.4142 19.6771 20 19.6771H19.6458C19.5189 20.1246 19.2793 20.5368 18.9445 20.8716C18.4288 21.3873 17.7293 21.6771 17 21.6771C16.2707 21.6771 15.5712 21.3873 15.0555 20.8716C14.7207 20.5368 14.4811 20.1246 14.3542 19.6771H4C3.58579 19.6771 3.25 19.3413 3.25 18.9271C3.25 18.5128 3.58579 18.1771 4 18.1771H14.3542C14.4811 17.7295 14.7207 17.3173 15.0555 16.9825ZM17 17.6771C16.6685 17.6771 16.3505 17.8088 16.1161 18.0432C15.8817 18.2776 15.75 18.5955 15.75 18.9271C15.75 19.2586 15.8817 19.5765 16.1161 19.8109C16.3505 20.0454 16.6685 20.1771 17 20.1771C17.3315 20.1771 17.6495 20.0454 17.8839 19.8109C18.1183 19.5765 18.25 19.2586 18.25 18.9271C18.25 18.5955 18.1183 18.2776 17.8839 18.0432C17.6495 17.8088 17.3315 17.6771 17 17.6771Z" fill="#18181A"/>
</svg>